<?xml version="1.0" standalone="no"?>
<!DOCTYPE svg PUBLIC "-//W3C//DTD SVG 20010904//EN"
 "http://www.w3.org/TR/2001/REC-SVG-20010904/DTD/svg10.dtd">
<svg version="1.0" xmlns="http://www.w3.org/2000/svg"
 width="272.000000pt" height="300.000000pt" viewBox="0 0 272.000000 300.000000"
 preserveAspectRatio="xMidYMid meet">

<g transform="translate(0.000000,300.000000) scale(0.100000,-0.100000)"
fill="#000000" stroke="none">
<path d="M585 2690 c-11 -4 -71 -60 -132 -122 -127 -129 -132 -142 -92 -235
35 -79 68 -181 79 -245 14 -76 0 -198 -40 -358 -44 -173 -60 -291 -60 -433 0
-271 73 -451 256 -634 122 -122 266 -210 509 -313 55 -23 131 -57 168 -76 80
-40 94 -41 148 -13 23 11 109 49 192 85 265 113 412 206 536 339 116 125 184
255 217 415 25 124 15 374 -21 525 -61 256 -67 292 -68 385 0 100 21 185 78
314 46 104 42 113 -98 253 -140 140 -152 145 -228 93 -78 -53 -167 -75 -309
-75 -142 0 -201 15 -284 72 -26 18 -61 33 -76 33 -15 0 -50 -15 -76 -33 -83
-57 -142 -72 -284 -72 -142 0 -231 22 -309 75 -45 30 -70 35 -106 20z m823
-234 c190 -96 433 -98 627 -5 l39 19 42 -41 41 -41 -28 -66 c-74 -178 -77
-358 -10 -630 82 -335 79 -555 -10 -722 -95 -178 -251 -295 -598 -446 l-152
-67 -92 43 c-355 165 -438 214 -542 319 -194 197 -230 430 -130 845 19 78 39
170 44 206 25 151 6 321 -48 452 l-28 66 41 41 42 41 39 -19 c111 -53 240 -77
364 -67 86 7 209 42 271 76 43 24 32 24 88 -4z"/>
<path d="M1285 1905 c-42 -103 -73 -166 -84 -169 -9 -2 -92 -12 -184 -22
l-169 -17 136 -131 136 -131 -39 -183 c-32 -152 -36 -182 -23 -177 8 3 78 44
154 90 76 47 143 85 148 85 5 0 72 -38 148 -85 76 -46 146 -87 154 -90 13 -5
9 25 -23 177 l-39 183 136 131 136 131 -169 17 c-92 10 -175 20 -184 22 -11 3
-42 66 -84 169 -37 91 -71 165 -75 165 -4 0 -38 -74 -75 -165z"/>
</g>
</svg>
